<svg width="12" height="12" viewBox="0 0 12 12" fill="none" xmlns="http://www.w3.org/2000/svg">
<path d="M11.625 6.75C10.7308 6.75 1.3714 6.75 1.125 6.75V5.4375H1.875C2.08212 5.4375 2.25 5.26959 2.25 5.0625V4.125C2.25 3.91791 2.08212 3.75 1.875 3.75C1.66788 3.75 1.5 3.91791 1.5 4.125V4.6875H1.125V1.43566C1.125 0.828562 1.86473 0.520102 2.29549 0.950836L2.69252 1.34787C2.3779 1.89633 2.4543 2.60962 2.92233 3.07767L3.10983 3.26517C3.25624 3.41161 3.49371 3.41163 3.64015 3.26517L5.14015 1.76517C5.28661 1.61873 5.28661 1.38129 5.14015 1.23485L4.95265 1.04735C4.4757 0.570375 3.76116 0.506883 3.22256 0.817266L2.82581 0.420516C2.55464 0.149344 2.19412 0 1.81066 0C1.01904 0 0.375 0.644039 0.375 1.43566V6.75C0.167883 6.75 0 6.91791 0 7.125C0 7.33209 0.167883 7.5 0.375 7.5V8.25C0.375 9.27865 0.837703 10.2011 1.56577 10.8206L1.04222 11.3651C0.812461 11.604 0.984914 12 1.31245 12C1.41087 12 1.50919 11.9615 1.58278 11.8849L2.19727 11.2459C2.66236 11.488 3.19045 11.625 3.75 11.625H8.25C8.80955 11.625 9.33764 11.488 9.80273 11.2459L10.4172 11.8849C10.5603 12.0337 10.7977 12.0393 10.9474 11.8953C11.0967 11.7517 11.1013 11.5143 10.9578 11.3651L10.4342 10.8206C11.1623 10.2011 11.625 9.27865 11.625 8.25V7.5C11.8321 7.5 12 7.33209 12 7.125C12 6.91791 11.8321 6.75 11.625 6.75ZM4.33852 1.50614L3.38121 2.46345C3.18795 2.19563 3.21176 1.81856 3.45265 1.57765C3.69588 1.33444 4.07283 1.31377 4.33852 1.50614ZM10.875 8.25C10.875 9.69743 9.69743 10.875 8.25 10.875H3.75C2.30257 10.875 1.125 9.69743 1.125 8.25V7.5H10.875V8.25Z" fill="#2C2C2C"/>
</svg>
