<svg width="15" height="12" viewBox="0 0 15 12" fill="none" xmlns="http://www.w3.org/2000/svg">
<path d="M0.25 0.25V11.25M0.25 8.89286H14.25M14.25 11.25V6.69286C14.25 5.81278 14.25 5.3727 14.0804 5.03657C13.9313 4.74091 13.6933 4.50048 13.4007 4.34986C13.0679 4.17857 12.6323 4.17857 11.7611 4.17857H6.47222V8.67859M3.36111 5.75H3.36889M4.13889 5.75C4.13889 6.18395 3.79066 6.53571 3.36111 6.53571C2.93156 6.53571 2.58333 6.18395 2.58333 5.75C2.58333 5.31605 2.93156 4.96429 3.36111 4.96429C3.79066 4.96429 4.13889 5.31605 4.13889 5.75Z" stroke="#2C2C2C" stroke-width="0.5" stroke-linecap="round" stroke-linejoin="round"/>
</svg>
