<svg width="36" height="36" viewBox="0 0 36 36" fill="none" xmlns="http://www.w3.org/2000/svg">
<path d="M18.0008 23.4002C14.6888 23.4002 14.4008 21.8522 14.4008 21.6002H10.8008C10.8008 23.2562 11.9888 26.1902 16.2008 26.8562V28.8002H19.8008V26.8562C23.4008 26.2442 25.2008 23.9222 25.2008 21.6002C25.2008 19.5842 24.2648 16.2002 18.0008 16.2002C14.4008 16.2002 14.4008 15.0662 14.4008 14.4002C14.4008 13.7342 15.6608 12.6002 18.0008 12.6002C20.3408 12.6002 20.5028 13.7522 20.5208 14.4002H24.1208C24.0965 13.174 23.6554 11.9925 22.8702 11.0503C22.0851 10.1081 21.0025 9.46125 19.8008 9.21619V7.2002H16.2008V9.1622C12.6008 9.7562 10.8008 12.0782 10.8008 14.4002C10.8008 16.4162 11.7368 19.8002 18.0008 19.8002C21.6008 19.8002 21.6008 21.0242 21.6008 21.6002C21.6008 22.1762 20.4848 23.4002 18.0008 23.4002Z" fill="#2C2C2C"/>
<path d="M5.4 0H0V3.6H3.6V34.2C3.6 34.6774 3.78964 35.1352 4.12721 35.4728C4.46477 35.8104 4.92261 36 5.4 36H30.6C31.0774 36 31.5352 35.8104 31.8728 35.4728C32.2104 35.1352 32.4 34.6774 32.4 34.2V3.6H36V0H5.4ZM28.8 32.4H7.2V3.6H28.8V32.4Z" fill="#2C2C2C"/>
</svg>
