<svg width="45" height="35" viewBox="0 0 45 35" fill="none" xmlns="http://www.w3.org/2000/svg">
<path d="M44.1335 13.6606L30.8844 0.411662C30.3357 -0.137049 29.446 -0.137143 28.8971 0.411662L24.9223 4.38624H24.9222L21.9412 7.36729L18.9605 4.38633H18.9604L14.9854 0.411569C14.4366 -0.137143 13.5469 -0.137236 12.9981 0.411569L0.411651 12.9982C0.148022 13.2617 0 13.6192 0 13.9919C0 14.3647 0.148116 14.7221 0.411651 14.9856L4.38641 18.9603C4.66082 19.2347 5.02047 19.3719 5.38003 19.3719C5.58726 19.3719 5.79393 19.3248 5.98486 19.2337L19.6224 32.8714C19.6225 32.8715 19.6226 32.8716 19.6227 32.8718C20.4446 33.6936 21.5243 34.1045 22.6038 34.1045C23.6833 34.1045 24.7629 33.6936 25.5847 32.8717C26.3262 32.1304 26.7569 31.1615 26.8129 30.1227C27.8129 30.0675 28.7971 29.6593 29.5594 28.8971C30.3224 28.1341 30.7305 27.1491 30.7853 26.1482C31.7862 26.0935 32.7713 25.6853 33.5342 24.9224C33.5347 24.9218 33.5353 24.9212 33.5359 24.9205L38.5606 19.8958C38.7479 19.9852 38.9536 20.0343 39.1651 20.0343C39.5378 20.0343 39.8953 19.8862 40.1587 19.6228L44.1335 15.648C44.397 15.3845 44.5451 15.027 44.5451 14.6544C44.5451 14.2815 44.397 13.9241 44.1335 13.6606ZM3.39261 13.9919L13.9919 3.39262L15.9794 5.37995L15.561 5.79835L5.38003 15.9793L3.39261 13.9919ZM27.5722 26.9097C27.0245 27.4573 26.1335 27.4575 25.5854 26.9104C25.5852 26.9102 25.585 26.9099 25.5847 26.9096L23.5973 24.9223C23.0485 24.3736 22.1587 24.3736 21.61 24.9223C21.0613 25.4711 21.0613 26.3608 21.6101 26.9096L23.5971 28.8966C23.5972 28.8967 23.5974 28.8969 23.5975 28.8971C23.5977 28.8973 23.5979 28.8974 23.5981 28.8976C23.8631 29.163 24.0091 29.5156 24.0091 29.8906C24.0091 30.2659 23.8629 30.6188 23.5974 30.8844C23.0495 31.4323 22.1579 31.4323 21.61 30.8843C21.6099 30.8842 21.6097 30.884 21.6095 30.8839L8.02991 17.3041L17.9668 7.36729L19.954 9.35462L16.9731 12.3357C16.9728 12.336 16.9725 12.3363 16.9722 12.3366C15.3294 13.9804 15.3296 16.6543 16.973 18.2978C17.7949 19.1197 18.8744 19.5307 19.954 19.5307C21.0335 19.5307 22.1131 19.1198 22.9349 18.298C22.9349 18.298 22.9349 18.2979 22.935 18.2979L25.916 15.3168L30.8837 20.2845C30.8839 20.2848 30.8841 20.2849 30.8843 20.2852L31.5481 20.9489C31.8127 21.2142 31.9585 21.5664 31.9585 21.9412C31.9585 22.3161 31.8125 22.6686 31.5478 22.9339L31.5468 22.9349C31.5467 22.935 31.5466 22.9352 31.5465 22.9354C30.9987 23.4825 30.1083 23.4826 29.5603 22.9358C29.5599 22.9353 29.5595 22.9349 29.559 22.9344L27.5721 20.9475C27.0233 20.3988 26.1334 20.3988 25.5847 20.9476C25.036 21.4964 25.036 22.3862 25.5847 22.935L27.5709 24.921C27.5713 24.9215 27.5717 24.9219 27.5722 24.9224C28.12 25.4703 28.12 26.3618 27.5722 26.9097ZM34.5279 19.9539L33.5346 18.9607C33.5344 18.9606 33.5344 18.9603 33.5342 18.9602C33.5341 18.9601 33.534 18.9601 33.534 18.9599L32.8717 18.2977C32.8717 18.2976 32.8716 18.2976 32.8715 18.2975L26.9097 12.3357C26.6462 12.0721 26.2888 11.9241 25.9161 11.9241C25.5434 11.9241 25.1859 12.0721 24.9225 12.3357L20.9478 16.3103C20.3999 16.8584 19.5083 16.8583 18.9604 16.3104C18.4126 15.7626 18.4125 14.8712 18.9603 14.3232C18.9604 14.3231 18.9604 14.3231 18.9605 14.323L22.934 10.3494C22.9344 10.3491 22.9348 10.3488 22.9351 10.3484C22.9355 10.3481 22.9358 10.3477 22.9362 10.3473L25.9162 7.36719L36.5154 17.9665L34.5279 19.9539ZM39.1651 16.6416L27.9033 5.37986L29.8907 3.39262L41.1523 14.6543L39.1651 16.6416Z" fill="#2C2C2C"/>
</svg>
