<svg width="30" height="34" viewBox="0 0 30 34" fill="none" xmlns="http://www.w3.org/2000/svg">
<path fill-rule="evenodd" clip-rule="evenodd" d="M10.2038 0C9.8172 0 9.44644 0.153582 9.17306 0.426942L0.426942 9.17306C0.153582 9.44644 0 9.8172 0 10.2038V27.6961C0 30.1113 1.95789 32.0691 4.37306 32.0691H7.28843C8.09349 32.0691 8.74612 31.4165 8.74612 30.6114C8.74612 29.8063 8.09349 29.1537 7.28843 29.1537H4.37306C3.56801 29.1537 2.91537 28.5011 2.91537 27.6961V11.6615H10.2038C11.0089 11.6615 11.6615 11.0089 11.6615 10.2038V2.91537H21.8653C22.6704 2.91537 23.323 3.56801 23.323 4.37306V8.74612C23.323 9.55117 23.9756 10.2038 24.7807 10.2038C25.5858 10.2038 26.2384 9.55117 26.2384 8.74612V4.37306C26.2384 1.95789 24.2805 0 21.8653 0H10.2038ZM8.74612 8.74612H4.97685L8.74612 4.97685V8.74612ZM15.3155 15.0368C15.4531 13.1496 17.0277 11.6615 18.9499 11.6615H20.4076C22.3297 11.6615 23.9043 13.1496 24.0421 15.0368C25.7451 14.2124 27.8213 14.832 28.7823 16.4966L29.5112 17.759C30.4722 19.4237 29.9708 21.5313 28.4054 22.5941C29.9708 23.6569 30.4722 25.7646 29.5112 27.4293L28.7823 28.6917C27.8213 30.3563 25.7451 30.9758 24.0421 30.1515C23.9043 32.0386 22.3297 33.5268 20.4076 33.5268H18.9499C17.0277 33.5268 15.4531 32.0386 15.3155 30.1515C13.6125 30.9758 11.5363 30.3563 10.5752 28.6917L9.84638 27.4293C8.8853 25.7646 9.3868 23.6569 10.9522 22.5941C9.3868 21.5313 8.8853 19.4237 9.84638 17.759L10.5752 16.4966C11.5363 14.832 13.6125 14.2124 15.3155 15.0368ZM18.9499 14.5769C18.5473 14.5769 18.2211 14.9032 18.2211 15.3057V16.7165C18.2211 17.2698 17.9077 17.7755 17.4121 18.0218C17.2194 18.1176 17.0334 18.2253 16.8551 18.3441C16.3937 18.6514 15.7981 18.6705 15.3181 18.3932L14.0957 17.6876C13.747 17.4863 13.3012 17.6057 13.0999 17.9543L12.3711 19.2167C12.1699 19.5654 12.2893 20.0111 12.638 20.2123L13.8609 20.9184C14.34 21.1951 14.6212 21.7191 14.5869 22.2713C14.5802 22.3778 14.5769 22.4855 14.5769 22.5941C14.5769 22.7027 14.5802 22.8105 14.5869 22.917C14.6212 23.4692 14.34 23.9932 13.8609 24.2699L12.638 24.976C12.2893 25.1772 12.1699 25.6229 12.3711 25.9716L13.0999 27.234C13.3012 27.5826 13.747 27.702 14.0957 27.5007L15.3181 26.7951C15.7981 26.5178 16.3937 26.5369 16.8551 26.8442C17.0334 26.963 17.2194 27.0707 17.4121 27.1665C17.9077 27.4128 18.2211 27.9185 18.2211 28.4718V29.8826C18.2211 30.285 18.5473 30.6114 18.9499 30.6114H20.4076C20.8101 30.6114 21.1365 30.285 21.1365 29.8826V28.472C21.1365 27.9185 21.4499 27.4128 21.9455 27.1665C22.1382 27.0707 22.3242 26.963 22.5026 26.8442C22.9638 26.5369 23.5594 26.5178 24.0394 26.7951L25.2619 27.5007C25.6105 27.702 26.0563 27.5826 26.2575 27.234L26.9863 25.9716C27.1876 25.6229 27.0682 25.1772 26.7195 24.976L25.4967 24.2699C25.0176 23.9934 24.7364 23.4693 24.7706 22.917C24.7773 22.8105 24.7807 22.7027 24.7807 22.5941C24.7807 22.4855 24.7773 22.3778 24.7706 22.2713C24.7364 21.719 25.0176 21.1949 25.4967 20.9184L26.7195 20.2123C27.0682 20.0111 27.1876 19.5654 26.9863 19.2167L26.2575 17.9543C26.0563 17.6057 25.6105 17.4863 25.2619 17.6876L24.0394 18.3932C23.5594 18.6705 22.9638 18.6514 22.5026 18.3441C22.3242 18.2253 22.1382 18.1176 21.9455 18.0218C21.4499 17.7755 21.1365 17.2698 21.1365 16.7163V15.3057C21.1365 14.9032 20.8101 14.5769 20.4076 14.5769H18.9499ZM22.5941 22.5941C22.5941 24.2043 21.2889 25.5095 19.6788 25.5095C18.0686 25.5095 16.7634 24.2043 16.7634 22.5941C16.7634 20.984 18.0686 19.6788 19.6788 19.6788C21.2889 19.6788 22.5941 20.984 22.5941 22.5941Z" fill="#2C2C2C"/>
</svg>
