<svg width="39" height="39" viewBox="0 0 39 39" fill="none" xmlns="http://www.w3.org/2000/svg">
<path d="M35.8201 6.81692C36.8855 8.51488 37.5 10.514 37.5 12.6539C37.5 18.814 32.4074 23.8079 26.1253 23.8079C24.979 23.8079 22.369 23.5484 21.0993 22.5109L19.5121 24.0673C18.1896 25.3641 19.2476 25.3641 19.7767 26.4018C19.7767 26.4018 21.0993 28.2175 19.7767 30.0333C18.983 31.0708 16.7609 32.5234 14.2216 30.0333L13.6925 30.552C13.6925 30.552 15.2797 32.3678 13.957 34.1835C13.1635 35.2212 11.0473 36.2587 9.19556 34.4429C9.10739 34.5294 8.6136 35.0136 7.34388 36.2587C6.07414 37.5037 4.52229 36.7774 3.90509 36.2587L2.31794 34.7022C0.836575 33.2497 1.7007 31.676 2.31794 31.0708L16.0733 17.5825C16.0733 17.5825 14.7507 15.5072 14.7507 12.6539C14.7507 6.49378 19.8433 1.5 26.1253 1.5C27.5991 1.5 29.0076 1.77487 30.3 2.27517" stroke="#2C2C2C" stroke-width="3" stroke-linecap="round" stroke-linejoin="round"/>
<path d="M30.0882 12.6536C30.0882 14.8025 28.3118 16.5445 26.1203 16.5445C23.9289 16.5445 22.1523 14.8025 22.1523 12.6536C22.1523 10.5047 23.9289 8.7627 26.1203 8.7627C28.3118 8.7627 30.0882 10.5047 30.0882 12.6536Z" stroke="#2C2C2C" stroke-width="3"/>
</svg>
