<svg width="38" height="38" viewBox="0 0 38 38" fill="none" xmlns="http://www.w3.org/2000/svg">
<path d="M3.84005 35.5548H34.1325M18.9862 35.5548V9.45662M18.9862 9.45662C21.0776 9.45662 22.7728 7.7874 22.7728 5.72831M18.9862 9.45662C16.8951 9.45662 15.1997 7.7874 15.1997 5.72831M22.7728 5.72831C22.7728 3.66922 21.0776 2 18.9862 2C16.8951 2 15.1997 3.66922 15.1997 5.72831M22.7728 5.72831H34.1325M15.1997 5.72831H3.84005M7.62661 28.0982C10.4903 28.0982 12.859 26.5293 13.2499 23.9062C13.2746 23.74 13.287 23.6568 13.2773 23.4725C13.2706 23.3451 13.2268 23.1127 13.1867 22.9913C13.1286 22.8159 13.0582 22.6927 12.9174 22.446L7.62661 13.1849L2.33578 22.446C2.20524 22.6746 2.13998 22.7889 2.0796 22.9874C2.04245 23.1095 1.99946 23.4025 2.00001 23.5299C2.00088 23.7372 2.0136 23.7918 2.03908 23.9012C2.52179 25.973 4.83983 28.0982 7.62661 28.0982ZM30.3459 28.0982C33.2097 28.0982 35.5784 26.5293 35.9692 23.9062C35.994 23.74 36.0065 23.6568 35.9966 23.4725C35.99 23.3451 35.9463 23.1127 35.9061 22.9913C35.848 22.8159 35.7776 22.6927 35.6367 22.446L30.3459 13.1849L25.0552 22.446C24.9247 22.6746 24.8594 22.7889 24.799 22.9874C24.7619 23.1095 24.7189 23.4025 24.7193 23.5299C24.7202 23.7372 24.7329 23.7918 24.7585 23.9012C25.2413 25.973 27.5592 28.0982 30.3459 28.0982Z" stroke="#2C2C2C" stroke-width="4" stroke-linecap="round" stroke-linejoin="round"/>
</svg>
