<svg width="37" height="37" viewBox="0 0 37 37" fill="none" xmlns="http://www.w3.org/2000/svg">
<path d="M34.7212 34.7194H10.9918C5.74961 34.7194 1.5 30.4699 1.5 25.2281V1.5" stroke="#2C2C2C" stroke-width="3" stroke-linecap="round" stroke-linejoin="round"/>
<path d="M25.5103 6.83793C24.5274 6.83793 23.7306 7.6347 23.7306 8.61754C23.7306 9.60038 24.5274 10.3971 25.5103 10.3971V6.83793ZM34.7197 10.3971C35.7026 10.3971 36.4994 9.60038 36.4994 8.61754C36.4994 7.6347 35.7026 6.83793 34.7197 6.83793V10.3971ZM36.4994 8.61754C36.4994 7.6347 35.7026 6.83793 34.7197 6.83793C33.7368 6.83793 32.94 7.6347 32.94 8.61754H36.4994ZM32.94 17.1763C32.94 18.1591 33.7368 18.9559 34.7197 18.9559C35.7026 18.9559 36.4994 18.1591 36.4994 17.1763H32.94ZM36.0877 9.75585C36.7163 9.00034 36.6135 7.87827 35.858 7.24959C35.1025 6.62094 33.9803 6.72375 33.3517 7.47923L36.0877 9.75585ZM25.2279 20.0237L26.4234 21.342C26.4851 21.286 26.5425 21.226 26.5959 21.1619L25.2279 20.0237ZM21.5048 20.1684L20.4021 21.5653L20.4151 21.5755L21.5048 20.1684ZM19.0155 18.2037L20.1183 16.8068L20.1092 16.7997L19.0155 18.2037ZM15.0242 18.6379L13.6541 17.5021C13.6366 17.5232 13.6195 17.5448 13.6029 17.5668L15.0242 18.6379ZM14.7205 18.9986L15.991 20.2448C16 20.2355 16.009 20.2261 16.0178 20.2168L14.7205 18.9986ZM7.02866 24.299C6.34041 25.0009 6.35133 26.1275 7.05305 26.8156C7.75478 27.5039 8.8816 27.493 9.56982 26.7914L7.02866 24.299ZM25.5103 10.3971H34.7197V6.83793H25.5103V10.3971ZM32.94 8.61754V17.1763H36.4994V8.61754H32.94ZM33.3517 7.47923L23.8599 18.8854L26.5959 21.1619L36.0877 9.75585L33.3517 7.47923ZM24.0324 18.7053C23.63 19.0703 23.0237 19.0937 22.5942 18.7613L20.4151 21.5755C22.2095 22.9648 24.7422 22.8663 26.4234 21.342L24.0324 18.7053ZM22.6072 18.7715L20.1183 16.8068L17.9128 19.6006L20.4021 21.5653L22.6072 18.7715ZM20.1092 16.7997C18.1212 15.2512 15.2625 15.5623 13.6541 17.5021L16.3942 19.7738C16.7748 19.3147 17.4513 19.2411 17.9219 19.6077L20.1092 16.7997ZM13.6029 17.5668C13.5469 17.6411 13.4868 17.7125 13.423 17.7804L16.0178 20.2168C16.1694 20.0552 16.312 19.8858 16.4454 19.709L13.6029 17.5668ZM13.4498 17.7524L7.02866 24.299L9.56982 26.7914L15.991 20.2448L13.4498 17.7524Z" fill="#2C2C2C"/>
</svg>
