<svg width="19" height="18" viewBox="0 0 19 18" fill="none" xmlns="http://www.w3.org/2000/svg">
<path d="M9.04276 1.62164C11.4572 1.62164 11.7431 1.63064 12.6969 1.67392C13.2704 1.6809 13.8384 1.7857 14.3763 1.98376C14.7663 2.13347 15.1206 2.36281 15.4162 2.65702C15.7118 2.95122 15.9422 3.30377 16.0927 3.69197C16.2917 4.22728 16.397 4.79258 16.404 5.36332C16.4471 6.31256 16.4565 6.59711 16.4565 9C16.4565 11.4029 16.4475 11.6874 16.404 12.6367C16.397 13.2074 16.2917 13.7727 16.0927 14.308C15.9422 14.6962 15.7118 15.0488 15.4162 15.343C15.1206 15.6372 14.7663 15.8665 14.3763 16.0162C13.8384 16.2143 13.2704 16.3191 12.6969 16.3261C11.7435 16.3689 11.4576 16.3784 9.04276 16.3784C6.62791 16.3784 6.34199 16.3694 5.38862 16.3261C4.81515 16.3191 4.24713 16.2143 3.70925 16.0162C3.31919 15.8665 2.96495 15.6372 2.66934 15.343C2.37372 15.0488 2.14328 14.6962 1.99285 14.308C1.79384 13.7727 1.68854 13.2074 1.68152 12.6367C1.63846 11.6874 1.62899 11.4029 1.62899 9C1.62899 6.59711 1.63803 6.31256 1.68152 5.36332C1.68854 4.79258 1.79384 4.22728 1.99285 3.69197C2.14328 3.30377 2.37372 2.95122 2.66934 2.65702C2.96495 2.36281 3.31919 2.13347 3.70925 1.98376C4.24713 1.7857 4.81515 1.6809 5.38862 1.67392C6.34242 1.63107 6.62834 1.62164 9.04276 1.62164V1.62164ZM9.04276 0C6.5883 0 6.27912 0.0102852 5.31456 0.0539974C4.56403 0.0688544 3.82147 0.210282 3.11846 0.472263C2.51539 0.698395 1.96917 1.05276 1.51789 1.51064C1.0574 1.95992 0.701027 2.50385 0.473668 3.10442C0.210429 3.80407 0.0683237 4.54309 0.0533954 5.29003C0.0103346 6.24913 0 6.55683 0 8.99957C0 11.4423 0.0103346 11.75 0.0542565 12.71C0.0691848 13.4569 0.211291 14.1959 0.47453 14.8956C0.701636 15.4961 1.05771 16.04 1.51789 16.4894C1.96942 16.9473 2.51595 17.3017 3.11932 17.5277C3.82233 17.7897 4.56489 17.9311 5.31542 17.946C6.27998 17.9889 6.58787 18 9.04362 18C11.4994 18 11.8073 17.9897 12.7718 17.946C13.5224 17.9311 14.2649 17.7897 14.9679 17.5277C15.5684 17.2961 16.1138 16.9422 16.569 16.4889C17.0243 16.0355 17.3795 15.4925 17.6119 14.8947C17.8751 14.1951 18.0172 13.4561 18.0321 12.7091C18.0752 11.75 18.0855 11.4423 18.0855 8.99957C18.0855 6.55683 18.0752 6.24913 18.0313 5.28918C18.0163 4.54223 17.8742 3.80322 17.611 3.10357C17.3839 2.50307 17.0278 1.95915 16.5676 1.50979C16.1161 1.0518 15.5696 0.697427 14.9662 0.471406C14.2632 0.209424 13.5206 0.0679973 12.7701 0.0531404C11.8064 0.0102853 11.4972 0 9.04276 0Z" fill="#EAEAEA"/>
<path d="M9.04211 4.37891C8.12368 4.37891 7.22587 4.64995 6.46223 5.15777C5.69858 5.66559 5.10339 6.38736 4.75192 7.23183C4.40045 8.0763 4.30849 9.00553 4.48767 9.90201C4.66684 10.7985 5.10911 11.622 5.75854 12.2683C6.40797 12.9146 7.23539 13.3548 8.13618 13.5331C9.03696 13.7114 9.97065 13.6199 10.8192 13.2701C11.6677 12.9203 12.3929 12.328 12.9032 11.568C13.4134 10.808 13.6858 9.91445 13.6858 9.0004C13.6858 7.7747 13.1965 6.59921 12.3257 5.73251C11.4548 4.86581 10.2737 4.37891 9.04211 4.37891ZM9.04211 12.0003C8.44595 12.0003 7.86317 11.8243 7.36748 11.4947C6.87179 11.1651 6.48545 10.6965 6.25731 10.1484C6.02916 9.60024 5.96947 8.99707 6.08578 8.41516C6.20208 7.83324 6.48916 7.29872 6.91071 6.87918C7.33226 6.45964 7.86935 6.17393 8.45406 6.05818C9.03877 5.94243 9.64483 6.00184 10.1956 6.22889C10.7464 6.45595 11.2172 6.84045 11.5484 7.33377C11.8796 7.82709 12.0564 8.40708 12.0564 9.0004C12.0564 9.79601 11.7388 10.559 11.1735 11.1216C10.6082 11.6842 9.84154 12.0003 9.04211 12.0003V12.0003Z" fill="#EAEAEA"/>
<path d="M13.8664 5.27513C14.4657 5.27513 14.9515 4.79162 14.9515 4.19518C14.9515 3.59874 14.4657 3.11523 13.8664 3.11523C13.2671 3.11523 12.7812 3.59874 12.7812 4.19518C12.7812 4.79162 13.2671 5.27513 13.8664 5.27513Z" fill="#EAEAEA"/>
</svg>
