<svg width="15" height="21" viewBox="0 0 15 21" fill="none" xmlns="http://www.w3.org/2000/svg">
<path d="M7.5 0C3.35813 0 0 3.52603 0 7.875C0 9.58748 0.534688 11.1589 1.42344 12.4458C1.43938 12.4766 1.44187 12.5111 1.46 12.5406L6.46 20.4156C6.69188 20.7808 7.0825 21 7.5 21C7.9175 21 8.30812 20.7808 8.54 20.4156L13.54 12.5406C13.5584 12.5111 13.5606 12.4766 13.5766 12.4458C14.4653 11.1589 15 9.58748 15 7.875C15 3.52603 11.6419 0 7.5 0ZM7.5 10.5C6.11937 10.5 5 9.32466 5 7.875C5 6.42534 6.11937 5.25 7.5 5.25C8.88062 5.25 10 6.42534 10 7.875C10 9.32466 8.88062 10.5 7.5 10.5Z" fill="#2C2C2C"/>
</svg>
